<svg xmlns="http://www.w3.org/2000/svg" width="256" height="256" viewBox="0 0 256 256">
  <title>Ruck logo</title>
  <g fill="none" stroke="#010000" stroke-width="14" stroke-linejoin="round" stroke-linecap="round">
    <path fill="#fff" fill-opacity=".8" d="m73.1719 28c-15.1404 0-27.1719 12.6128-27.1719 28.1714v60.7146h-11.5859c-15.1404 0-27.4141 12.613-27.4141 28.171v45.657c0 15.559 12.2737 28.172 27.4141 28.172h11.5859c0 15.558 12.0315 30.114 27.1719 30.114h109.6561c15.141 0 27.172-14.556 27.172-30.114h11.586c15.14 0 27.414-12.613 27.414-28.172v-45.657c0-15.558-12.274-28.171-27.414-28.171h-11.586s0-45.1559 0-60.7146c0-15.5586-12.031-28.1714-27.172-28.1714z" />
    <path d="m46 117v49c-20 8-39 0-39-22" />
    <path d="m210 117v49c20 8 39 0 39-22" />
    <path d="m74 150.171c0-15.558 12.309-28.171 27.493-28.171h53.014c15.184 0 27.493 12.613 27.493 28.171v40.658c0 15.558-12.309 28.171-27.493 28.171h-53.014c-15.184 0-27.493-12.613-27.493-28.171z" />
    <path d="m74 149c0 13.807 12.0282 25 26.866 25h54.268c14.838 0 26.866-11.193 26.866-25" />
    <path d="m46 55v1c0 16.0163 13.2257 29 29.5404 29h104.9196c16.314 0 29.54-12.9837 29.54-29v-1" />
    <path d="m99 40v-9.4286c0-13.0181 8.667-23.5714 19-23.5714h20c10.333 0 19 10.5533 19 23.5714v9.4286" />
    <path d="m99 71v28" />
    <path d="m157 99v-28" />
  </g>
</svg>
